<svg version="1.1" viewBox="0.0 0.0 444.1128608923884 409.62729658792654" fill="none" stroke="none" stroke-linecap="square" stroke-miterlimit="10" xmlns:xlink="http://www.w3.org/1999/xlink" xmlns="http://www.w3.org/2000/svg"><clipPath id="p.0"><path d="m0 0l444.11285 0l0 409.6273l-444.11285 0l0 -409.6273z" clip-rule="nonzero"/></clipPath><g clip-path="url(#p.0)"><path fill="#000000" fill-opacity="0.0" d="m0 0l444.11285 0l0 409.6273l-444.11285 0z" fill-rule="evenodd"/><path fill="#000000" d="m64.78808 348.99213l26.387802 -98.67125l0 0l250.32086 -250.32086l72.28348 72.28346l-250.32088 250.32086l0 0z" fill-rule="evenodd"/><path stroke="#000000" stroke-width="1.0" stroke-linejoin="round" stroke-linecap="butt" d="m64.78808 348.99213l26.387802 -98.67125l0 0l250.32086 -250.32086l72.28348 72.28346l-250.32088 250.32086l0 0z" fill-rule="evenodd"/><path fill="#000000" d="m0 392.12387l0 -15.984253l0 0l442.4252 0l0 31.968506l-442.4252 0l0 0z" fill-rule="evenodd"/><path stroke="#000000" stroke-width="1.0" stroke-linejoin="round" stroke-linecap="butt" d="m0 392.12387l0 -15.984253l0 0l442.4252 0l0 31.968506l-442.4252 0l0 0z" fill-rule="evenodd"/></g></svg>